<?xml version="1.0" standalone="no"?><!DOCTYPE svg PUBLIC "-//W3C//DTD SVG 1.1//EN" "http://www.w3.org/Graphics/SVG/1.1/DTD/svg11.dtd"><svg t="1723033081894" class="icon" viewBox="0 0 1024 1024" version="1.1" xmlns="http://www.w3.org/2000/svg" p-id="19095" xmlns:xlink="http://www.w3.org/1999/xlink" width="200" height="200"><path d="M337.856 281.984c135.168 0 270.336 0 405.568 0 30.208 0 30.592 0 28.8-29.504-3.712-65.152-7.68-130.24-11.84-195.328C759.36 38.272 757.696 19.392 756.352 0 613.248 0 472.32 0 330.88 0 325.312 86.656 319.68 172.032 314.24 257.408 312.64 281.984 312.768 281.984 337.856 281.984zM340.224 232.128C345.088 165.248 350.08 98.432 355.072 30.656c125.312 0 250.24 0 377.088 0 1.216 15.168 2.688 29.952 3.648 44.672 3.648 50.944 7.168 101.952 10.432 152.896 1.536 23.104 1.28 23.104-25.472 23.104-119.872 0-239.68 0-359.488 0C338.944 251.328 338.88 251.328 340.224 232.128z" p-id="19096"></path><path d="M779.776 362.688c-0.704-12.416-4.992-16.064-17.664-16.064C621.376 347.008 476.352 346.88 335.68 346.88c-21.056 0-21.056 0-23.168 20.608C312.32 369.28 303.68 537.728 303.68 637.12c0 153.344 6.656 236.8 16.832 305.344 5.12 38.4 46.08 74.432 234.688 74.432 166.592 0 205.76-32.448 214.272-76.416 7.296-47.744 11.52-125.248 13.824-167.36C791.552 621.312 787.456 514.368 779.776 362.688zM752.96 765.12c-1.984 38.464-5.696 109.248-12.032 152.832-7.424 40.192-41.536 69.824-186.816 69.824-164.48 0-200.192-32.96-204.736-68.032-8.896-62.528-14.656-138.752-14.656-278.72 0-90.688 7.488-244.544 7.68-246.208 1.92-18.816 1.92-18.816 20.224-18.816 122.688 0 249.152 0.128 371.84-0.256 11.136 0 14.784 3.328 15.424 14.656C756.544 528.896 760.064 626.56 752.96 765.12z" p-id="19097"></path></svg>