<?xml version="1.0" standalone="no"?><!DOCTYPE svg PUBLIC "-//W3C//DTD SVG 1.1//EN" "http://www.w3.org/Graphics/SVG/1.1/DTD/svg11.dtd"><svg t="1723033012957" class="icon" viewBox="0 0 1024 1024" version="1.1" xmlns="http://www.w3.org/2000/svg" p-id="17520" xmlns:xlink="http://www.w3.org/1999/xlink" width="200" height="200"><path d="M885.333333 757.333333a21.333333 21.333333 0 1 1-42.666666 0 275.978667 275.978667 0 0 0-31.424-40.32A534.496 534.496 0 0 1 487.797333 832c-186.090667 0-301.866667-54.826667-323.722666-124.8-0.106667-0.32-0.149333-0.64-0.256-0.96a86.112 86.112 0 0 1-2.528-9.6 75.850667 75.850667 0 0 1 0-27.946667c0.661333-3.242667 1.493333-6.453333 2.528-9.6 0.106667-0.32 0.149333-0.64 0.256-0.96C185.92 588.16 301.674667 533.333333 487.797333 533.333333a534.496 534.496 0 0 1 323.445334 114.986667A275.978667 275.978667 0 0 0 842.666667 608a21.333333 21.333333 0 1 1 42.666666 0c0 21.76-13.749333 48-37.728 74.666667C871.584 709.333333 885.333333 735.573333 885.333333 757.333333z m-687.082666-74.666666L202.666667 693.333333c6.314667 30.4 35.36 52.48 76.501333 67.733334a95.733333 95.733333 0 0 0 0.074667-156.8C238.058667 619.52 208.981333 641.6 202.666667 672l-4.416 10.666667zM480 576a741.813333 741.813333 0 0 0-152.458667 14.506667 138.165333 138.165333 0 0 1-0.106666 184.213333c50.208 10.176 101.333333 15.072 152.565333 14.613333a459.072 459.072 0 0 0 295.018667-106.666666A459.072 459.072 0 0 0 480 576zM288 682.666667a21.333333 21.333333 0 1 1-42.666667 0 21.333333 21.333333 0 0 1 42.666667 0z m533.333333-416H266.666667v104.32a31.616 31.616 0 0 1 0 47.36V448h0.533333a37.152 37.152 0 0 0 73.6 0H341.333333a21.333333 21.333333 0 1 1 42.666667 0c-0.032 2.026667-0.352 4.042667-0.96 5.973333A79.861333 79.861333 0 0 1 224.266667 448H224v-29.653333a31.616 31.616 0 0 1 0-47.36V266.666667a21.333333 21.333333 0 1 1 0-42.666667v-10.666667a21.333333 21.333333 0 1 1 42.666667 0v10.666667h554.666666a21.333333 21.333333 0 1 1 0 42.666667zM426.602667 682.773333l64.266666-29.866666a24.16 24.16 0 0 1 28.96 6.293333 15.445333 15.445333 0 0 1-7.765333 23.36l-64.266667 29.866667c-9.962667 4.704-21.845333 2.133333-28.96-6.293334a15.445333 15.445333 0 0 1 7.765334-23.36z m128 0l64.266666-29.866666a24.170667 24.170667 0 0 1 28.96 6.293333 15.445333 15.445333 0 0 1-7.765333 23.36l-64.266667 29.866667c-9.962667 4.704-21.845333 2.133333-28.96-6.293334a15.456 15.456 0 0 1 7.765334-23.36z" fill="#666666" p-id="17521"></path></svg>